<svg width="32" height="30" viewBox="0 0 32 30" fill="none" xmlns="http://www.w3.org/2000/svg">
<path d="M5.356 21.8883C5.56359 22.0976 5.72267 22.3504 5.82188 22.6286C5.9211 22.9068 5.95801 23.2035 5.93 23.4976C5.78909 24.859 5.52262 26.2042 5.134 27.5161C7.924 26.8671 9.628 26.1156 10.402 25.7218C10.841 25.4985 11.3466 25.4455 11.822 25.5732C13.1846 25.9395 14.5894 26.1233 16 26.1197C23.992 26.1197 30 20.4798 30 14.0644C30 7.64904 23.992 2.0092 16 2.0092C8.008 2.0092 2 7.65105 2 14.0644C2 17.0139 3.234 19.7505 5.356 21.8883ZM4.37 29.7342C3.89612 29.8285 3.42072 29.9149 2.944 29.9934C2.544 30.0577 2.24 29.6398 2.398 29.2661C2.57511 28.8452 2.73787 28.4183 2.886 27.9862L2.892 27.9661C3.388 26.5195 3.792 24.8559 3.94 23.3068C1.486 20.8355 0 17.6006 0 14.0644C0 6.29685 7.164 0 16 0C24.836 0 32 6.29685 32 14.0644C32 21.832 24.836 28.1289 16 28.1289C14.4152 28.1324 12.8369 27.9257 11.306 27.514C10.266 28.0425 8.028 29.0049 4.37 29.7342Z" fill="#6161FF"/>
</svg>
