<svg width="30" height="30" viewBox="0 0 30 30" fill="none" xmlns="http://www.w3.org/2000/svg">
<path d="M26.7074 22.0465C25.7688 21.1071 24.6721 20.3404 23.4674 19.7815C25.1662 18.4053 26.2499 16.3054 26.2499 13.9505C26.2499 9.79559 22.785 6.38694 18.63 6.45069C14.5388 6.51444 11.2425 9.84809 11.2425 13.9505C11.2425 16.3054 12.33 18.4053 14.025 19.7815C12.8202 20.34 11.7233 21.1068 10.785 22.0465C8.73754 24.0977 7.57505 26.8051 7.50005 29.6925C7.49905 29.7325 7.50607 29.7724 7.52069 29.8096C7.53532 29.8469 7.55726 29.8808 7.58522 29.9095C7.61318 29.9382 7.64659 29.9609 7.68348 29.9765C7.72038 29.992 7.76001 30 7.80005 30H9.90003C10.0613 30 10.1963 29.8725 10.2 29.7113C10.2713 27.5363 11.1525 25.5001 12.7013 23.9552C13.4938 23.1585 14.4365 22.5268 15.4747 22.0969C16.513 21.6669 17.6262 21.4471 18.75 21.4503C21.0337 21.4503 23.1824 22.339 24.7987 23.9552C26.3437 25.5001 27.2249 27.5363 27.2999 29.7113C27.3037 29.8725 27.4387 30 27.5999 30H29.6999C29.7399 30 29.7796 29.992 29.8165 29.9765C29.8534 29.9609 29.8868 29.9382 29.9147 29.9095C29.9427 29.8808 29.9646 29.8469 29.9793 29.8096C29.9939 29.7724 30.0009 29.7325 29.9999 29.6925C29.9249 26.8051 28.7624 24.0977 26.7074 22.0465ZM18.75 18.7503C17.4675 18.7503 16.26 18.2516 15.3562 17.3441C14.9027 16.8942 14.5444 16.3574 14.3028 15.766C14.0612 15.1746 13.9412 14.5405 13.95 13.9017C13.9613 12.6718 14.4525 11.483 15.3112 10.6018C16.2112 9.67935 17.415 9.16561 18.7012 9.15061C19.9725 9.13936 21.2062 9.63435 22.1137 10.5231C23.0437 11.4343 23.5537 12.653 23.5537 13.9505C23.5537 15.2329 23.0549 16.4366 22.1475 17.3441C21.7022 17.7915 21.1727 18.1461 20.5895 18.3875C20.0064 18.6288 19.3811 18.7522 18.75 18.7503ZM9.35629 14.9404C9.32254 14.6142 9.30379 14.2842 9.30379 13.9505C9.30379 13.3542 9.36003 12.773 9.46503 12.2068C9.49128 12.0718 9.42003 11.933 9.29628 11.8768C8.78629 11.648 8.31754 11.333 7.91254 10.9356C7.43532 10.4729 7.05979 9.91575 6.80992 9.29979C6.56005 8.68384 6.44132 8.02257 6.4613 7.35817C6.49505 6.15445 6.9788 5.01073 7.82255 4.14826C8.74879 3.19954 9.99378 2.68205 11.3175 2.69705C12.5138 2.7083 13.6688 3.16954 14.5425 3.98701C14.8388 4.2645 15.0937 4.572 15.3075 4.90199C15.3825 5.01823 15.5287 5.06698 15.6562 5.02198C16.3162 4.79324 17.0137 4.63199 17.73 4.557C17.94 4.5345 18.06 4.3095 17.9662 4.12201C16.7475 1.71083 14.2575 0.0458785 11.3775 0.000879865C7.2188 -0.0628683 3.75382 3.34578 3.75382 7.49691C3.75382 9.85184 4.83756 11.9518 6.5363 13.328C5.34381 13.8792 4.24507 14.6405 3.29257 15.5929C1.23759 17.6441 0.0750933 20.3515 9.37719e-05 23.2427C-0.000907116 23.2827 0.00611294 23.3225 0.0207405 23.3598C0.0353681 23.3971 0.057307 23.431 0.0852647 23.4597C0.113222 23.4883 0.146633 23.5111 0.183529 23.5267C0.220424 23.5422 0.260056 23.5502 0.300092 23.5502H2.40383C2.56508 23.5502 2.70008 23.4227 2.70383 23.2614C2.77508 21.0865 3.65632 19.0503 5.20506 17.5054C6.30755 16.4029 7.65755 15.6379 9.13129 15.2667C9.27754 15.2292 9.37504 15.0904 9.35629 14.9404Z" fill="#6161FF"/>
</svg>
